<?xml version="1.0" encoding="utf-8"?>
<!-- Generator: Adobe Illustrator 24.2.3, SVG Export Plug-In . SVG Version: 6.00 Build 0)  -->
<svg version="1.1" id="Layer_1" xmlns="http://www.w3.org/2000/svg" xmlns:xlink="http://www.w3.org/1999/xlink" x="0px"
	y="0px" width="1400px" height="1400px" viewBox="0 0 1400 1400" style="enable-background:new 0 0 1400 1400;"
	xml:space="preserve">
	<style type="text/css">
		.st0 {
			fill: #FF4800;
		}

		.st1 {
			fill: #FFB600;
		}

		.st2 {
			fill: #FFFFFF;
		}
	</style>
	<rect class="st0" width="1400" height="1400" />
	<g>
		<rect x="839.27" y="114.98" class="st1" width="23.25" height="23.25" />
		<rect x="816.21" y="618.56" class="st1" width="23.25" height="23.06" />
		<rect x="839.27" y="207.79" class="st1" width="23.25" height="23.25" />
		<rect x="816.21" y="525.75" class="st1" width="23.25" height="23.25" />
		<rect x="932.08" y="850.3" class="st1" width="23.25" height="23.25" />
		<rect x="839.27" y="393.22" class="st1" width="23.25" height="23.25" />
		<rect x="839.27" y="22.36" class="st1" width="23.25" height="23.25" />
		<rect x="885.58" y="254.1" class="st1" width="23.25" height="23.25" />
		<rect x="1001.64" y="896.61" class="st1" width="23.25" height="23.25" />
		<rect x="885.58" y="161.48" class="st1" width="23.25" height="23.06" />
		<rect x="862.52" y="525.75" class="st1" width="23.25" height="23.25" />
		<rect x="885.58" y="439.53" class="st1" width="23.25" height="23.25" />
		<rect x="885.58" y="346.91" class="st1" width="23.25" height="23.06" />
		<rect x="839.27" y="300.41" class="st1" width="23.25" height="23.25" />
		<rect x="908.83" y="896.61" class="st1" width="23.25" height="23.25" />
		<rect x="955.33" y="803.99" class="st1" width="23.06" height="23.06" />
		<rect x="978.39" y="850.3" class="st1" width="23.25" height="23.25" />
		<rect x="908.83" y="803.99" class="st1" width="23.25" height="23.06" />
		<rect x="885.58" y="68.67" class="st1" width="23.25" height="23.25" />
		<rect x="955.33" y="896.61" class="st1" width="23.06" height="23.25" />
		<rect x="816.21" y="711.18" class="st1" width="23.25" height="23.25" />
		<rect x="885.77" y="850.3" class="st1" width="23.06" height="23.25" />
		<rect x="816.21" y="803.99" class="st1" width="23.25" height="23.06" />
		<rect x="839.46" y="850.3" class="st1" width="23.06" height="23.25" />
		<rect x="816.21" y="896.61" class="st1" width="23.25" height="23.25" />
		<rect x="862.52" y="803.99" class="st1" width="23.25" height="23.06" />
		<rect x="862.52" y="896.61" class="st1" width="23.25" height="23.25" />
		<rect x="931.89" y="300.41" class="st1" width="23.25" height="23.25" />
		<rect x="1024.89" y="572.06" class="st1" width="23.06" height="23.25" />
		<rect x="1024.89" y="479.44" class="st1" width="23.06" height="23.25" />
		<rect x="1024.89" y="757.49" class="st1" width="23.06" height="23.25" />
		<rect x="1024.89" y="664.87" class="st1" width="23.06" height="23.25" />
		<rect x="1047.95" y="618.56" class="st1" width="23.25" height="23.06" />
		<rect x="1047.95" y="525.75" class="st1" width="23.25" height="23.25" />
		<rect x="1047.95" y="711.18" class="st1" width="23.25" height="23.25" />
		<rect x="1001.64" y="618.56" class="st1" width="23.25" height="23.06" />
		<rect x="1269.58" y="161.48" class="st1" width="23.07" height="23.06" />
		<rect x="955.33" y="711.18" class="st1" width="23.06" height="23.25" />
		<rect x="908.83" y="525.75" class="st1" width="23.25" height="23.25" />
		<rect x="978.39" y="664.87" class="st1" width="23.25" height="23.25" />
		<rect x="1001.64" y="711.18" class="st1" width="23.25" height="23.25" />
		<rect x="978.39" y="757.49" class="st1" width="23.25" height="23.25" />
		<rect x="931.89" y="22.36" class="st1" width="23.25" height="23.25" />
		<rect x="932.08" y="479.44" class="st1" width="23.25" height="23.25" />
		<rect x="931.89" y="114.98" class="st1" width="23.25" height="23.25" />
		<rect x="955.33" y="525.75" class="st1" width="23.06" height="23.25" />
		<rect x="931.89" y="393.22" class="st1" width="23.25" height="23.25" />
		<rect x="931.89" y="207.79" class="st1" width="23.25" height="23.25" />
		<rect x="1001.64" y="525.75" class="st1" width="23.25" height="23.25" />
		<rect x="1024.7" y="207.79" class="st1" width="23.25" height="23.25" />
		<rect x="1024.7" y="300.41" class="st1" width="23.25" height="23.25" />
		<rect x="1024.7" y="114.98" class="st1" width="23.25" height="23.25" />
		<rect x="978.39" y="572.06" class="st1" width="23.25" height="23.25" />
		<rect x="1024.7" y="393.22" class="st1" width="23.25" height="23.25" />
		<rect x="1024.7" y="22.36" class="st1" width="23.25" height="23.25" />
		<rect x="1001.64" y="803.99" class="st1" width="23.25" height="23.06" />
		<rect x="687.19" y="664.87" class="st1" width="23.25" height="23.25" />
		<rect x="687.19" y="757.49" class="st1" width="23.25" height="23.25" />
		<rect x="710.44" y="711.18" class="st1" width="23.25" height="23.25" />
		<rect x="710.44" y="618.56" class="st1" width="23.25" height="23.06" />
		<rect x="733.69" y="664.87" class="st1" width="23.06" height="23.25" />
		<rect x="664.13" y="711.18" class="st1" width="23.06" height="23.25" />
		<rect x="733.69" y="757.49" class="st1" width="23.06" height="23.25" />
		<rect x="640.88" y="757.49" class="st1" width="23.25" height="23.25" />
		<rect x="617.63" y="711.18" class="st1" width="23.25" height="23.25" />
		<rect x="664.13" y="618.56" class="st1" width="23.06" height="23.06" />
		<rect x="617.63" y="618.56" class="st1" width="23.25" height="23.06" />
		<rect x="640.88" y="572.06" class="st1" width="23.25" height="23.25" />
		<rect x="640.88" y="664.87" class="st1" width="23.25" height="23.25" />
		<rect x="594.57" y="479.44" class="st1" width="23.06" height="23.25" />
		<rect x="733.5" y="300.41" class="st1" width="23.25" height="23.25" />
		<rect x="733.69" y="572.06" class="st1" width="23.06" height="23.25" />
		<rect x="733.5" y="207.79" class="st1" width="23.25" height="23.25" />
		<rect x="687.19" y="572.06" class="st1" width="23.25" height="23.25" />
		<rect x="710.44" y="525.75" class="st1" width="23.25" height="23.25" />
		<rect x="955.33" y="618.56" class="st1" width="23.06" height="23.06" />
		<rect x="733.5" y="393.22" class="st1" width="23.25" height="23.25" />
		<rect x="756.75" y="711.18" class="st1" width="23.25" height="23.25" />
		<rect x="733.5" y="114.98" class="st1" width="23.25" height="23.25" />
		<rect x="756.75" y="618.56" class="st1" width="23.25" height="23.06" />
		<rect x="733.69" y="479.44" class="st1" width="23.06" height="23.25" />
		<rect x="756.75" y="525.75" class="st1" width="23.25" height="23.25" />
		<rect x="733.5" y="22.36" class="st1" width="23.25" height="23.25" />
		<rect x="1071.2" y="479.44" class="st1" width="23.06" height="23.25" />
		<rect x="1071.01" y="346.91" class="st1" width="23.25" height="23.06" />
		<rect x="1071.01" y="439.53" class="st1" width="23.25" height="23.25" />
		<rect x="1071.01" y="254.1" class="st1" width="23.25" height="23.25" />
		<rect x="1071.01" y="68.67" class="st1" width="23.25" height="23.25" />
		<rect x="1024.89" y="850.3" class="st1" width="23.06" height="23.25" />
		<rect x="1071.01" y="161.48" class="st1" width="23.25" height="23.06" />
		<rect x="1071.2" y="850.3" class="st1" width="23.06" height="23.25" />
		<rect x="594.57" y="572.06" class="st1" width="23.06" height="23.25" />
		<rect x="687.19" y="161.48" class="st1" width="23.06" height="23.06" />
		<rect x="1047.95" y="896.61" class="st1" width="23.25" height="23.25" />
		<rect x="1047.95" y="803.99" class="st1" width="23.25" height="23.06" />
		<rect x="1071.2" y="757.49" class="st1" width="23.06" height="23.25" />
		<rect x="1071.2" y="664.87" class="st1" width="23.06" height="23.25" />
		<rect x="1071.2" y="572.06" class="st1" width="23.06" height="23.25" />
		<rect x="571.32" y="618.56" class="st1" width="23.25" height="23.06" />
		<rect x="548.26" y="572.06" class="st1" width="23.06" height="23.25" />
		<rect x="687.19" y="68.67" class="st1" width="23.06" height="23.25" />
		<rect x="548.26" y="479.44" class="st1" width="23.06" height="23.25" />
		<rect x="594.57" y="664.87" class="st1" width="23.06" height="23.25" />
		<rect x="594.57" y="757.49" class="st1" width="23.06" height="23.25" />
		<rect x="571.32" y="711.18" class="st1" width="23.25" height="23.25" />
		<rect x="687.19" y="439.53" class="st1" width="23.06" height="23.25" />
		<rect x="687.19" y="346.91" class="st1" width="23.06" height="23.06" />
		<rect x="687.19" y="254.1" class="st1" width="23.06" height="23.25" />
		<rect x="687.19" y="479.44" class="st1" width="23.25" height="23.25" />
		<rect x="548.26" y="757.49" class="st1" width="23.06" height="23.25" />
		<rect x="548.26" y="664.87" class="st1" width="23.06" height="23.25" />
		<rect x="1315.9" y="207.79" class="st1" width="23.24" height="23.25" />
		<rect x="1315.9" y="300.41" class="st1" width="23.24" height="23.25" />
		<rect x="1315.9" y="114.98" class="st1" width="23.24" height="23.25" />
		<rect x="1315.9" y="22.36" class="st1" width="23.24" height="23.25" />
		<rect x="1315.9" y="393.22" class="st1" width="23.24" height="23.25" />
		<rect x="1269.58" y="572.06" class="st1" width="23.25" height="23.25" />
		<rect x="1316.08" y="757.49" class="st1" width="23.06" height="23.25" />
		<rect x="1316.08" y="479.44" class="st1" width="23.06" height="23.25" />
		<rect x="1246.52" y="525.75" class="st1" width="23.06" height="23.25" />
		<rect x="1316.08" y="572.06" class="st1" width="23.06" height="23.25" />
		<rect x="1339.14" y="525.75" class="st1" width="23.25" height="23.25" />
		<rect x="1316.08" y="664.87" class="st1" width="23.06" height="23.25" />
		<rect x="1130.47" y="22.36" class="st1" width="23.25" height="23.25" />
		<rect x="1339.14" y="711.18" class="st1" width="23.25" height="23.25" />
		<rect x="1292.83" y="525.75" class="st1" width="23.25" height="23.25" />
		<rect x="1176.78" y="346.91" class="st1" width="23.25" height="23.06" />
		<rect x="1176.78" y="254.1" class="st1" width="23.25" height="23.25" />
		<rect x="1176.78" y="161.48" class="st1" width="23.25" height="23.06" />
		<rect x="1176.78" y="68.67" class="st1" width="23.25" height="23.25" />
		<rect x="1153.72" y="525.75" class="st1" width="23.24" height="23.25" />
		<rect x="1176.78" y="439.53" class="st1" width="23.25" height="23.25" />
		<rect x="1200.03" y="525.75" class="st1" width="23.24" height="23.25" />
		<rect x="1223.09" y="114.98" class="st1" width="23.25" height="23.25" />
		<rect x="1223.09" y="207.79" class="st1" width="23.25" height="23.25" />
		<rect x="1223.09" y="22.36" class="st1" width="23.25" height="23.25" />
		<rect x="1223.27" y="479.44" class="st1" width="23.25" height="23.25" />
		<rect x="1223.09" y="300.41" class="st1" width="23.25" height="23.25" />
		<rect x="1223.09" y="393.22" class="st1" width="23.25" height="23.25" />
		<rect x="1339.14" y="618.56" class="st1" width="23.25" height="23.06" />
		<rect x="1130.65" y="479.44" class="st1" width="23.07" height="23.25" />
		<rect x="1130.65" y="572.06" class="st1" width="23.07" height="23.25" />
		<rect x="1176.96" y="757.49" class="st1" width="23.07" height="23.25" />
		<rect x="1292.83" y="618.56" class="st1" width="23.25" height="23.06" />
		<rect x="1153.72" y="711.18" class="st1" width="23.24" height="23.25" />
		<rect x="1153.72" y="618.56" class="st1" width="23.24" height="23.06" />
		<rect x="1130.65" y="664.87" class="st1" width="23.07" height="23.25" />
		<rect x="1269.58" y="346.91" class="st1" width="23.07" height="23.06" />
		<rect x="1269.58" y="254.1" class="st1" width="23.07" height="23.25" />
		<rect x="1269.58" y="479.44" class="st1" width="23.25" height="23.25" />
		<rect x="1269.58" y="68.67" class="st1" width="23.07" height="23.25" />
		<rect x="664.13" y="525.75" class="st1" width="23.06" height="23.25" />
		<rect x="1269.58" y="439.53" class="st1" width="23.07" height="23.25" />
		<rect x="1130.65" y="757.49" class="st1" width="23.07" height="23.25" />
		<rect x="1223.27" y="572.06" class="st1" width="23.25" height="23.25" />
		<rect x="1269.58" y="757.49" class="st1" width="23.25" height="23.25" />
		<rect x="1246.52" y="618.56" class="st1" width="23.06" height="23.06" />
		<rect x="1246.52" y="711.18" class="st1" width="23.06" height="23.25" />
		<rect x="1269.58" y="664.87" class="st1" width="23.25" height="23.25" />
		<rect x="1176.96" y="664.87" class="st1" width="23.07" height="23.25" />
		<rect x="1292.83" y="711.18" class="st1" width="23.25" height="23.25" />
		<rect x="1176.96" y="479.44" class="st1" width="23.07" height="23.25" />
		<rect x="1200.03" y="618.56" class="st1" width="23.24" height="23.06" />
		<rect x="1176.96" y="572.06" class="st1" width="23.07" height="23.25" />
		<rect x="1223.27" y="757.49" class="st1" width="23.25" height="23.25" />
		<rect x="1223.27" y="664.87" class="st1" width="23.25" height="23.25" />
		<rect x="1200.03" y="711.18" class="st1" width="23.24" height="23.25" />
		<rect x="978.39" y="68.67" class="st1" width="23.06" height="23.25" />
		<rect x="978.39" y="254.1" class="st1" width="23.06" height="23.25" />
		<rect x="839.46" y="664.87" class="st1" width="23.06" height="23.25" />
		<rect x="978.39" y="161.48" class="st1" width="23.06" height="23.06" />
		<rect x="932.08" y="572.06" class="st1" width="23.25" height="23.25" />
		<rect x="978.39" y="439.53" class="st1" width="23.06" height="23.25" />
		<rect x="978.39" y="479.44" class="st1" width="23.25" height="23.25" />
		<rect x="978.39" y="346.91" class="st1" width="23.06" height="23.06" />
		<rect x="1362.21" y="346.91" class="st1" width="23.25" height="23.06" />
		<rect x="1130.47" y="114.98" class="st1" width="23.25" height="23.25" />
		<rect x="1362.21" y="68.67" class="st1" width="23.25" height="23.25" />
		<rect x="1362.39" y="479.44" class="st1" width="23.07" height="23.25" />
		<rect x="1362.21" y="254.1" class="st1" width="23.25" height="23.25" />
		<rect x="1362.21" y="161.48" class="st1" width="23.25" height="23.06" />
		<rect x="839.46" y="572.06" class="st1" width="23.06" height="23.25" />
		<rect x="885.77" y="572.06" class="st1" width="23.06" height="23.25" />
		<rect x="885.77" y="479.44" class="st1" width="23.06" height="23.25" />
		<rect x="908.83" y="711.18" class="st1" width="23.25" height="23.25" />
		<rect x="908.83" y="618.56" class="st1" width="23.25" height="23.06" />
		<rect x="932.08" y="757.49" class="st1" width="23.25" height="23.25" />
		<rect x="932.08" y="664.87" class="st1" width="23.25" height="23.25" />
		<rect x="1362.39" y="572.06" class="st1" width="23.07" height="23.25" />
		<rect x="839.46" y="479.44" class="st1" width="23.06" height="23.25" />
		<rect x="862.52" y="618.56" class="st1" width="23.25" height="23.06" />
		<rect x="839.46" y="757.49" class="st1" width="23.06" height="23.25" />
		<rect x="885.77" y="757.49" class="st1" width="23.06" height="23.25" />
		<rect x="885.77" y="664.87" class="st1" width="23.06" height="23.25" />
		<rect x="862.52" y="711.18" class="st1" width="23.25" height="23.25" />
		<rect x="1362.21" y="439.53" class="st1" width="23.25" height="23.25" />
		<rect x="1362.39" y="664.87" class="st1" width="23.07" height="23.25" />
		<rect x="1130.65" y="850.3" class="st1" width="23.07" height="23.25" />
		<rect x="1107.41" y="896.61" class="st1" width="23.24" height="23.25" />
		<rect x="1107.41" y="803.99" class="st1" width="23.24" height="23.06" />
		<rect x="1153.72" y="803.99" class="st1" width="23.24" height="23.06" />
		<rect x="1176.96" y="850.3" class="st1" width="23.07" height="23.25" />
		<rect x="1130.47" y="393.22" class="st1" width="23.25" height="23.25" />
		<rect x="1107.41" y="711.18" class="st1" width="23.24" height="23.25" />
		<rect x="1200.03" y="896.61" class="st1" width="23.24" height="23.25" />
		<rect x="1130.47" y="207.79" class="st1" width="23.25" height="23.25" />
		<rect x="1130.47" y="300.41" class="st1" width="23.25" height="23.25" />
		<rect x="1107.41" y="525.75" class="st1" width="23.24" height="23.25" />
		<rect x="1107.41" y="618.56" class="st1" width="23.24" height="23.06" />
		<rect x="1153.72" y="896.61" class="st1" width="23.24" height="23.25" />
		<rect x="1292.83" y="803.99" class="st1" width="23.25" height="23.06" />
		<rect x="1316.08" y="850.3" class="st1" width="23.06" height="23.25" />
		<rect x="1200.03" y="803.99" class="st1" width="23.24" height="23.06" />
		<rect x="1339.14" y="896.61" class="st1" width="23.25" height="23.25" />
		<rect x="1362.39" y="757.49" class="st1" width="23.07" height="23.25" />
		<rect x="1362.39" y="850.3" class="st1" width="23.07" height="23.25" />
		<rect x="1339.14" y="803.99" class="st1" width="23.25" height="23.06" />
		<rect x="1223.27" y="850.3" class="st1" width="23.25" height="23.25" />
		<rect x="1246.52" y="896.61" class="st1" width="23.06" height="23.25" />
		<rect x="1246.52" y="803.99" class="st1" width="23.06" height="23.06" />
		<rect x="1292.83" y="896.61" class="st1" width="23.25" height="23.25" />
		<rect x="1269.58" y="850.3" class="st1" width="23.25" height="23.25" />
		<rect x="256.88" y="393.22" class="st1" width="23.25" height="23.25" />
		<rect x="12.18" y="479.44" class="st1" width="23.06" height="23.25" />
		<rect x="58.49" y="664.87" class="st1" width="23.25" height="23.25" />
		<rect x="35.24" y="618.56" class="st1" width="23.25" height="23.06" />
		<rect x="12.18" y="572.06" class="st1" width="23.06" height="23.25" />
		<rect x="104.8" y="254.1" class="st1" width="23.06" height="23.25" />
		<rect x="58.49" y="757.49" class="st1" width="23.25" height="23.25" />
		<rect x="12.18" y="664.87" class="st1" width="23.06" height="23.25" />
		<rect x="104.8" y="479.44" class="st1" width="23.25" height="23.25" />
		<rect x="104.8" y="439.53" class="st1" width="23.06" height="23.25" />
		<rect x="12.18" y="757.49" class="st1" width="23.06" height="23.25" />
		<rect x="104.8" y="346.91" class="st1" width="23.06" height="23.06" />
		<rect y="618.56" class="st1" width="12.18" height="23.06" />
		<rect y="711.18" class="st1" width="12.18" height="23.25" />
		<rect x="35.24" y="711.18" class="st1" width="23.25" height="23.25" />
		<rect x="151.3" y="572.06" class="st1" width="23.06" height="23.25" />
		<rect x="151.3" y="757.49" class="st1" width="23.06" height="23.25" />
		<rect x="58.49" y="572.06" class="st1" width="23.25" height="23.25" />
		<rect x="151.3" y="664.87" class="st1" width="23.06" height="23.25" />
		<rect x="174.36" y="711.18" class="st1" width="23.25" height="23.25" />
		<rect x="174.36" y="618.56" class="st1" width="23.25" height="23.06" />
		<rect x="151.3" y="479.44" class="st1" width="23.06" height="23.25" />
		<rect x="81.74" y="711.18" class="st1" width="23.06" height="23.25" />
		<rect x="81.74" y="618.56" class="st1" width="23.06" height="23.06" />
		<rect x="104.8" y="757.49" class="st1" width="23.25" height="23.25" />
		<rect x="128.05" y="618.56" class="st1" width="23.25" height="23.06" />
		<rect x="104.8" y="664.87" class="st1" width="23.25" height="23.25" />
		<rect x="128.05" y="711.18" class="st1" width="23.25" height="23.25" />
		<rect x="442.49" y="850.3" class="st1" width="23.06" height="23.25" />
		<rect x="372.93" y="803.99" class="st1" width="23.07" height="23.06" />
		<rect x="174.36" y="525.75" class="st1" width="23.25" height="23.25" />
		<rect x="104.8" y="68.67" class="st1" width="23.06" height="23.25" />
		<rect x="349.69" y="850.3" class="st1" width="23.24" height="23.25" />
		<rect x="419.24" y="896.61" class="st1" width="23.25" height="23.25" />
		<rect x="419.24" y="803.99" class="st1" width="23.25" height="23.06" />
		<rect x="372.93" y="896.61" class="st1" width="23.07" height="23.25" />
		<rect x="280.13" y="896.61" class="st1" width="23.25" height="23.25" />
		<rect x="257.06" y="850.3" class="st1" width="23.07" height="23.25" />
		<rect x="280.13" y="803.99" class="st1" width="23.25" height="23.06" />
		<rect x="303.38" y="850.3" class="st1" width="23.06" height="23.25" />
		<rect x="326.44" y="896.61" class="st1" width="23.25" height="23.25" />
		<rect x="326.44" y="803.99" class="st1" width="23.25" height="23.06" />
		<rect x="396" y="850.3" class="st1" width="23.24" height="23.25" />
		<rect x="488.62" y="254.1" class="st1" width="23.25" height="23.25" />
		<rect x="488.62" y="161.48" class="st1" width="23.25" height="23.06" />
		<rect x="488.62" y="439.53" class="st1" width="23.25" height="23.25" />
		<rect x="488.62" y="346.91" class="st1" width="23.25" height="23.06" />
		<rect x="104.8" y="161.48" class="st1" width="23.06" height="23.06" />
		<rect x="465.55" y="896.61" class="st1" width="23.25" height="23.25" />
		<rect x="488.62" y="68.67" class="st1" width="23.25" height="23.25" />
		<rect x="488.8" y="757.49" class="st1" width="23.07" height="23.25" />
		<rect x="488.8" y="850.3" class="st1" width="23.07" height="23.25" />
		<rect x="465.55" y="803.99" class="st1" width="23.25" height="23.06" />
		<rect x="488.8" y="664.87" class="st1" width="23.07" height="23.25" />
		<rect x="488.8" y="479.44" class="st1" width="23.07" height="23.25" />
		<rect x="488.8" y="572.06" class="st1" width="23.07" height="23.25" />
		<rect x="11.99" y="161.48" class="st1" width="23.25" height="23.06" />
		<rect x="197.61" y="664.87" class="st1" width="23.06" height="23.25" />
		<rect x="197.61" y="850.3" class="st1" width="23.06" height="23.25" />
		<rect x="197.42" y="346.91" class="st1" width="23.25" height="23.06" />
		<rect x="197.61" y="757.49" class="st1" width="23.06" height="23.25" />
		<rect x="197.61" y="479.44" class="st1" width="23.06" height="23.25" />
		<rect x="151.11" y="22.36" class="st1" width="23.25" height="23.25" />
		<rect x="197.61" y="572.06" class="st1" width="23.06" height="23.25" />
		<rect x="128.05" y="803.99" class="st1" width="23.25" height="23.06" />
		<rect x="81.74" y="803.99" class="st1" width="23.06" height="23.06" />
		<rect x="104.8" y="850.3" class="st1" width="23.25" height="23.25" />
		<rect x="174.36" y="896.61" class="st1" width="23.25" height="23.25" />
		<rect x="151.3" y="850.3" class="st1" width="23.06" height="23.25" />
		<rect x="174.36" y="803.99" class="st1" width="23.25" height="23.06" />
		<rect x="128.05" y="896.61" class="st1" width="23.25" height="23.25" />
		<path class="st1" d="M508.33,1376.94v-23.25h23.06v-69.56h-23.06v-23.06h23.06v-69.56h-23.06v-23.25h23.06v-69.56h-23.06v-23.06
		h23.06v-69.56h-23.06v-23.25h23.06v-46.31h-23.06v23.25h-23.25v-23.25h-23.06v23.25h-23.25v-23.25h-23.25v23.25h-23.06v-23.25
		h-23.25v23.25h-23.24v-23.25H322.9v23.25h-23.24v-23.25h-23.07v23.25h-23.25v69.37h23.25v23.25h-23.25v69.56h23.25v23.25h-23.25
		v69.37h23.25v23.25h-23.25v69.56h23.25v23.25h-23.25V1400h278.05v-23.06H508.33z M508.33,1237.82h-23.25v-23.25h23.25V1237.82z
		 M322.9,1214.57v23.25h-23.24v-23.25H322.9z M299.66,1145.2v-23.25h23.24v23.25H299.66z M322.9,1261.07h23.07v23.06H322.9V1261.07z
		 M322.9,1191.51v-23.25h23.07v23.25H322.9z M345.97,1098.7H322.9v-23.06h23.07V1098.7z M369.21,1121.95v23.25h-23.24v-23.25H369.21
		z M345.97,1214.57h23.24v23.25h-23.24V1214.57z M369.21,1261.07h23.25v23.06h-23.25V1261.07z M369.21,1191.51v-23.25h23.25v23.25
		H369.21z M392.46,1098.7h-23.25v-23.06h23.25V1098.7z M415.52,1121.95v23.25h-23.06v-23.25H415.52z M392.46,1214.57h23.06v23.25
		h-23.06V1214.57z M415.52,1261.07h23.25v23.06h-23.25V1261.07z M415.52,1191.51v-23.25h23.25v23.25H415.52z M438.77,1098.7h-23.25
		v-23.06h23.25V1098.7z M462.02,1121.95v23.25h-23.25v-23.25H462.02z M438.77,1214.57h23.25v23.25h-23.25V1214.57z M462.02,1261.07
		h23.06v23.06h-23.06V1261.07z M462.02,1191.51v-23.25h23.06v23.25H462.02z M462.02,1098.7v-23.06h23.06v23.06H462.02z
		 M508.33,1145.2h-23.25v-23.25h23.25V1145.2z M508.33,1029.14v23.25h-23.25v-23.25H508.33z M462.02,982.83h23.06v23.25h-23.06
		V982.83z M462.02,1029.14v23.25h-23.25v-23.25H462.02z M415.52,982.83h23.25v23.25h-23.25V982.83z M415.52,1029.14v23.25h-23.06
		v-23.25H415.52z M369.21,982.83h23.25v23.25h-23.25V982.83z M369.21,1029.14v23.25h-23.24v-23.25H369.21z M322.9,982.83h23.07
		v23.25H322.9V982.83z M322.9,1029.14v23.25h-23.24v-23.25H322.9z M276.59,982.83h23.07v23.25h-23.07V982.83z M276.59,1075.64h23.07
		v23.06h-23.07V1075.64z M276.59,1168.26h23.07v23.25h-23.07V1168.26z M276.59,1261.07h23.07v23.06h-23.07V1261.07z M299.66,1376.94
		h-23.07v-23.25h23.07V1376.94z M299.66,1307.38h23.24v23.25h-23.24V1307.38z M345.97,1376.94H322.9v-23.25h23.07V1376.94z
		 M345.97,1307.38h23.24v23.25h-23.24V1307.38z M392.46,1376.94h-23.25v-23.25h23.25V1376.94z M392.46,1307.38h23.06v23.25h-23.06
		V1307.38z M438.77,1376.94h-23.25v-23.25h23.25V1376.94z M438.77,1307.38h23.25v23.25h-23.25V1307.38z M485.08,1376.94h-23.06
		v-23.25h23.06V1376.94z M485.08,1307.38h23.25v23.25h-23.25V1307.38z" />
		<path class="st1" d="M807.34,1376.94v-23.25h23.06v-69.56h-23.06v-23.06h23.06v-69.56h-23.06v-23.25h23.06v-69.56h-23.06v-23.06
		h23.06v-69.56h-23.06v-23.25h23.06v-46.31h-23.06v23.25h-23.25v-23.25h-23.06v23.25h-23.25v-23.25h-23.25v23.25h-23.06v-23.25
		h-23.25v23.25h-23.25v-23.25h-23.06v23.25h-23.25v-23.25H575.6v23.25h-23.25v69.37h23.25v23.25h-23.25v69.56h23.25v23.25h-23.25
		v69.37h23.25v23.25h-23.25v69.56h23.25v23.25h-23.25V1400H830.4v-23.06H807.34z M807.34,1237.82h-23.25v-23.25h23.25V1237.82z
		 M621.91,1214.57v23.25h-23.25v-23.25H621.91z M598.66,1145.2v-23.25h23.25v23.25H598.66z M621.91,1261.07h23.06v23.06h-23.06
		V1261.07z M621.91,1191.51v-23.25h23.06v23.25H621.91z M644.97,1098.7h-23.06v-23.06h23.06V1098.7z M668.22,1121.95v23.25h-23.25
		v-23.25H668.22z M644.97,1214.57h23.25v23.25h-23.25V1214.57z M668.22,1261.07h23.25v23.06h-23.25V1261.07z M668.22,1191.51v-23.25
		h23.25v23.25H668.22z M691.47,1098.7h-23.25v-23.06h23.25V1098.7z M714.53,1121.95v23.25h-23.06v-23.25H714.53z M691.47,1214.57
		h23.06v23.25h-23.06V1214.57z M714.53,1261.07h23.25v23.06h-23.25V1261.07z M714.53,1191.51v-23.25h23.25v23.25H714.53z
		 M737.78,1098.7h-23.25v-23.06h23.25V1098.7z M761.03,1121.95v23.25h-23.25v-23.25H761.03z M737.78,1214.57h23.25v23.25h-23.25
		V1214.57z M761.03,1261.07h23.06v23.06h-23.06V1261.07z M761.03,1191.51v-23.25h23.06v23.25H761.03z M761.03,1098.7v-23.06h23.06
		v23.06H761.03z M807.34,1145.2h-23.25v-23.25h23.25V1145.2z M807.34,1029.14v23.25h-23.25v-23.25H807.34z M761.03,982.83h23.06
		v23.25h-23.06V982.83z M761.03,1029.14v23.25h-23.25v-23.25H761.03z M714.53,982.83h23.25v23.25h-23.25V982.83z M714.53,1029.14
		v23.25h-23.06v-23.25H714.53z M668.22,982.83h23.25v23.25h-23.25V982.83z M668.22,1029.14v23.25h-23.25v-23.25H668.22z
		 M621.91,982.83h23.06v23.25h-23.06V982.83z M621.91,1029.14v23.25h-23.25v-23.25H621.91z M575.6,982.83h23.06v23.25H575.6V982.83z
		 M575.6,1075.64h23.06v23.06H575.6V1075.64z M575.6,1168.26h23.06v23.25H575.6V1168.26z M575.6,1261.07h23.06v23.06H575.6V1261.07z
		 M598.66,1376.94H575.6v-23.25h23.06V1376.94z M598.66,1307.38h23.25v23.25h-23.25V1307.38z M644.97,1376.94h-23.06v-23.25h23.06
		V1376.94z M644.97,1307.38h23.25v23.25h-23.25V1307.38z M691.47,1376.94h-23.25v-23.25h23.25V1376.94z M691.47,1307.38h23.06v23.25
		h-23.06V1307.38z M737.78,1376.94h-23.25v-23.25h23.25V1376.94z M737.78,1307.38h23.25v23.25h-23.25V1307.38z M784.09,1376.94
		h-23.06v-23.25h23.06V1376.94z M784.09,1307.38h23.25v23.25h-23.25V1307.38z" />
		<path class="st1" d="M209.32,1376.94v-23.25h23.07v-69.56h-23.07v-23.06h23.07v-69.56h-23.07v-23.25h23.07v-69.56h-23.07v-23.06
		h23.07v-69.56h-23.07v-23.25h23.07v-46.31h-23.07v23.25h-23.24v-23.25h-23.07v23.25h-23.25v-23.25h-23.24v23.25H93.45v-23.25H70.21
		v23.25H46.96v-23.25H23.9v23.25H0.65v-23.25H0v46.31h0.65v23.25H0v69.56h0.65v23.06H0v69.56h0.65v23.25H0v69.56h0.65v23.06H0v69.56
		h0.65v23.25H0V1400h232.39v-23.06H209.32z M209.32,1237.82h-23.24v-23.25h23.24V1237.82z M23.9,1191.51v-23.25h23.06v23.25H23.9z
		 M46.96,1261.07v23.06H23.9v-23.06H46.96z M46.96,1098.7H23.9v-23.06h23.06V1098.7z M70.21,1121.95v23.25H46.96v-23.25H70.21z
		 M46.96,1214.57h23.25v23.25H46.96V1214.57z M70.21,1261.07h23.24v23.06H70.21V1261.07z M70.21,1191.51v-23.25h23.24v23.25H70.21z
		 M93.45,1098.7H70.21v-23.06h23.24V1098.7z M116.52,1121.95v23.25H93.45v-23.25H116.52z M93.45,1214.57h23.07v23.25H93.45V1214.57z
		 M116.52,1261.07h23.24v23.06h-23.24V1261.07z M116.52,1191.51v-23.25h23.24v23.25H116.52z M139.76,1098.7h-23.24v-23.06h23.24
		V1098.7z M163.01,1121.95v23.25h-23.25v-23.25H163.01z M139.76,1214.57h23.25v23.25h-23.25V1214.57z M163.01,1261.07h23.07v23.06
		h-23.07V1261.07z M163.01,1191.51v-23.25h23.07v23.25H163.01z M163.01,1098.7v-23.06h23.07v23.06H163.01z M209.32,1145.2h-23.24
		v-23.25h23.24V1145.2z M209.32,1029.14v23.25h-23.24v-23.25H209.32z M163.01,982.83h23.07v23.25h-23.07V982.83z M163.01,1029.14
		v23.25h-23.25v-23.25H163.01z M116.52,982.83h23.24v23.25h-23.24V982.83z M116.52,1029.14v23.25H93.45v-23.25H116.52z
		 M70.21,982.83h23.24v23.25H70.21V982.83z M70.21,1029.14v23.25H46.96v-23.25H70.21z M23.9,982.83h23.06v23.25H23.9V982.83z
		 M0.65,1029.14H23.9v23.25H0.65V1029.14z M0.65,1121.95H23.9v23.25H0.65V1121.95z M0.65,1214.57H23.9v23.25H0.65V1214.57z
		 M0.65,1307.38H23.9v23.25H0.65V1307.38z M46.96,1376.94H23.9v-23.25h23.06V1376.94z M46.96,1307.38h23.25v23.25H46.96V1307.38z
		 M93.45,1376.94H70.21v-23.25h23.24V1376.94z M93.45,1307.38h23.07v23.25H93.45V1307.38z M139.76,1376.94h-23.24v-23.25h23.24
		V1376.94z M139.76,1307.38h23.25v23.25h-23.25V1307.38z M186.08,1376.94h-23.07v-23.25h23.07V1376.94z M186.08,1307.38h23.24v23.25
		h-23.24V1307.38z" />
		<rect x="1398.6" y="896.61" class="st1" width="1.4" height="23.25" />
		<path class="st1" d="M1106.35,1376.94v-23.25h23.06v-69.56h-23.06v-23.06h23.06v-69.56h-23.06v-23.25h23.06v-69.56h-23.06v-23.06
		h23.06v-69.56h-23.06v-23.25h23.06v-46.31h-23.06v23.25h-23.25v-23.25h-23.06v23.25h-23.25v-23.25h-23.25v23.25h-23.06v-23.25
		h-23.25v23.25h-23.25v-23.25h-23.06v23.25h-23.25v-23.25h-23.06v23.25h-23.25v69.37h23.25v23.25h-23.25v69.56h23.25v23.25h-23.25
		v69.37h23.25v23.25h-23.25v69.56h23.25v23.25h-23.25V1400h278.05v-23.06H1106.35z M1106.35,1237.82h-23.25v-23.25h23.25V1237.82z
		 M920.92,1214.57v23.25h-23.25v-23.25H920.92z M897.67,1145.2v-23.25h23.25v23.25H897.67z M920.92,1261.07h23.06v23.06h-23.06
		V1261.07z M920.92,1191.51v-23.25h23.06v23.25H920.92z M943.98,1098.7h-23.06v-23.06h23.06V1098.7z M967.23,1121.95v23.25h-23.25
		v-23.25H967.23z M943.98,1214.57h23.25v23.25h-23.25V1214.57z M967.23,1261.07h23.25v23.06h-23.25V1261.07z M967.23,1191.51v-23.25
		h23.25v23.25H967.23z M990.48,1098.7h-23.25v-23.06h23.25V1098.7z M1013.54,1121.95v23.25h-23.06v-23.25H1013.54z M990.48,1214.57
		h23.06v23.25h-23.06V1214.57z M1013.54,1261.07h23.25v23.06h-23.25V1261.07z M1013.54,1191.51v-23.25h23.25v23.25H1013.54z
		 M1036.79,1098.7h-23.25v-23.06h23.25V1098.7z M1060.04,1121.95v23.25h-23.25v-23.25H1060.04z M1036.79,1214.57h23.25v23.25h-23.25
		V1214.57z M1060.04,1261.07h23.06v23.06h-23.06V1261.07z M1060.04,1191.51v-23.25h23.06v23.25H1060.04z M1060.04,1098.7v-23.06
		h23.06v23.06H1060.04z M1106.35,1145.2h-23.25v-23.25h23.25V1145.2z M1106.35,1029.14v23.25h-23.25v-23.25H1106.35z
		 M1060.04,982.83h23.06v23.25h-23.06V982.83z M1060.04,1029.14v23.25h-23.25v-23.25H1060.04z M1013.54,982.83h23.25v23.25h-23.25
		V982.83z M1013.54,1029.14v23.25h-23.06v-23.25H1013.54z M967.23,982.83h23.25v23.25h-23.25V982.83z M967.23,1029.14v23.25h-23.25
		v-23.25H967.23z M920.92,982.83h23.06v23.25h-23.06V982.83z M920.92,1029.14v23.25h-23.25v-23.25H920.92z M874.61,982.83h23.06
		v23.25h-23.06V982.83z M874.61,1075.64h23.06v23.06h-23.06V1075.64z M874.61,1168.26h23.06v23.25h-23.06V1168.26z M874.61,1261.07
		h23.06v23.06h-23.06V1261.07z M897.67,1376.94h-23.06v-23.25h23.06V1376.94z M897.67,1307.38h23.25v23.25h-23.25V1307.38z
		 M943.98,1376.94h-23.06v-23.25h23.06V1376.94z M943.98,1307.38h23.25v23.25h-23.25V1307.38z M990.48,1376.94h-23.25v-23.25h23.25
		V1376.94z M990.48,1307.38h23.06v23.25h-23.06V1307.38z M1036.79,1376.94h-23.25v-23.25h23.25V1376.94z M1036.79,1307.38h23.25
		v23.25h-23.25V1307.38z M1083.1,1376.94h-23.06v-23.25h23.06V1376.94z M1083.1,1307.38h23.25v23.25h-23.25V1307.38z" />
		<path class="st1" d="M1382.11,1330.63v-23.25H1400v-69.56h-17.89v-23.25H1400v-69.37h-17.89v-23.25H1400v-69.56h-17.89v-23.25H1400
		v-69.37h-17.89v-23.25h-23.07v23.25h-23.24v-23.25h-23.25v23.25h-23.06v-23.25h-23.25v23.25h-23.25v-23.25h-23.06v23.25h-23.25
		v-23.25h-23.06v23.25h-23.25v69.37h23.25v23.25h-23.25v69.56h23.25v23.25h-23.25v69.37h23.25v23.25h-23.25v69.56h23.25v23.25
		h-23.25V1400H1400v-69.37H1382.11z M1382.11,1284.13h-23.07v-23.06h23.07V1284.13z M1219.93,1214.57v23.25h-23.25v-23.25H1219.93z
		 M1196.68,1145.2v-23.25h23.25v23.25H1196.68z M1219.93,1261.07h23.06v23.06h-23.06V1261.07z M1219.93,1191.51v-23.25h23.06v23.25
		H1219.93z M1242.99,1098.7h-23.06v-23.06h23.06V1098.7z M1266.24,1121.95v23.25h-23.25v-23.25H1266.24z M1242.99,1214.57h23.25
		v23.25h-23.25V1214.57z M1266.24,1261.07h23.25v23.06h-23.25V1261.07z M1266.24,1191.51v-23.25h23.25v23.25H1266.24z
		 M1289.49,1098.7h-23.25v-23.06h23.25V1098.7z M1312.55,1121.95v23.25h-23.06v-23.25H1312.55z M1289.49,1214.57h23.06v23.25h-23.06
		V1214.57z M1312.55,1261.07h23.25v23.06h-23.25V1261.07z M1312.55,1191.51v-23.25h23.25v23.25H1312.55z M1335.8,1098.7h-23.25
		v-23.06h23.25V1098.7z M1359.04,1121.95v23.25h-23.24v-23.25H1359.04z M1335.8,1214.57h23.24v23.25h-23.24V1214.57z
		 M1382.11,1191.51h-23.07v-23.25h23.07V1191.51z M1382.11,1098.7h-23.07v-23.06h23.07V1098.7z M1359.04,982.83h23.07v23.25h-23.07
		V982.83z M1359.04,1029.14v23.25h-23.24v-23.25H1359.04z M1312.55,982.83h23.25v23.25h-23.25V982.83z M1312.55,1029.14v23.25
		h-23.06v-23.25H1312.55z M1266.24,982.83h23.25v23.25h-23.25V982.83z M1266.24,1029.14v23.25h-23.25v-23.25H1266.24z
		 M1219.93,982.83h23.06v23.25h-23.06V982.83z M1219.93,1029.14v23.25h-23.25v-23.25H1219.93z M1173.62,982.83h23.06v23.25h-23.06
		V982.83z M1173.62,1075.64h23.06v23.06h-23.06V1075.64z M1173.62,1168.26h23.06v23.25h-23.06V1168.26z M1173.62,1261.07h23.06
		v23.06h-23.06V1261.07z M1196.68,1376.94h-23.06v-23.25h23.06V1376.94z M1196.68,1307.38h23.25v23.25h-23.25V1307.38z
		 M1242.99,1376.94h-23.06v-23.25h23.06V1376.94z M1242.99,1307.38h23.25v23.25h-23.25V1307.38z M1289.49,1376.94h-23.25v-23.25
		h23.25V1376.94z M1289.49,1307.38h23.06v23.25h-23.06V1307.38z M1335.8,1376.94h-23.25v-23.25h23.25V1376.94z M1335.8,1307.38
		h23.24v23.25h-23.24V1307.38z M1382.11,1376.94h-23.07v-23.25h23.07V1376.94z" />
		<rect x="197.42" y="68.67" class="st1" width="23.25" height="23.25" />
		<rect x="197.42" y="254.1" class="st1" width="23.25" height="23.25" />
		<rect x="1398.6" y="618.56" class="st1" width="1.4" height="23.06" />
		<rect x="1398.6" y="525.75" class="st1" width="1.4" height="23.25" />
		<rect x="197.42" y="161.48" class="st1" width="23.25" height="23.06" />
		<rect x="1398.6" y="711.18" class="st1" width="1.4" height="23.25" />
		<rect x="1398.6" y="803.99" class="st1" width="1.4" height="23.06" />
		<rect x="197.42" y="439.53" class="st1" width="23.25" height="23.25" />
		<rect x="58.3" y="22.36" class="st1" width="23.25" height="23.25" />
		<rect x="58.3" y="393.22" class="st1" width="23.25" height="23.25" />
		<rect x="81.74" y="896.61" class="st1" width="23.06" height="23.25" />
		<rect x="58.49" y="479.44" class="st1" width="23.25" height="23.25" />
		<rect x="58.3" y="300.41" class="st1" width="23.25" height="23.25" />
		<rect x="58.3" y="207.79" class="st1" width="23.25" height="23.25" />
		<rect x="81.74" y="525.75" class="st1" width="23.06" height="23.25" />
		<rect x="151.11" y="300.41" class="st1" width="23.25" height="23.25" />
		<rect x="151.11" y="207.79" class="st1" width="23.25" height="23.25" />
		<rect x="104.8" y="572.06" class="st1" width="23.25" height="23.25" />
		<rect x="151.11" y="114.98" class="st1" width="23.25" height="23.25" />
		<rect x="151.11" y="393.22" class="st1" width="23.25" height="23.25" />
		<rect x="128.05" y="525.75" class="st1" width="23.25" height="23.25" />
		<rect x="58.3" y="114.98" class="st1" width="23.25" height="23.25" />
		<rect x="12.18" y="850.3" class="st1" width="23.06" height="23.25" />
		<rect y="803.99" class="st1" width="12.18" height="23.06" />
		<rect x="35.24" y="896.61" class="st1" width="23.25" height="23.25" />
		<rect x="35.24" y="525.75" class="st1" width="23.25" height="23.25" />
		<rect y="896.61" class="st1" width="12.18" height="23.25" />
		<rect x="58.49" y="850.3" class="st1" width="23.25" height="23.25" />
		<rect x="35.24" y="803.99" class="st1" width="23.25" height="23.06" />
		<rect x="233.82" y="711.18" class="st1" width="23.24" height="23.25" />
		<rect x="11.99" y="254.1" class="st1" width="23.25" height="23.25" />
		<rect y="525.75" class="st1" width="12.18" height="23.25" />
		<rect x="11.99" y="68.67" class="st1" width="23.25" height="23.25" />
		<rect x="11.99" y="439.53" class="st1" width="23.25" height="23.25" />
		<rect x="11.99" y="346.91" class="st1" width="23.25" height="23.06" />
		<rect x="465.55" y="525.75" class="st1" width="23.25" height="23.25" />
		<rect x="780" y="850.3" class="st1" width="23.06" height="23.25" />
		<rect x="756.75" y="803.99" class="st1" width="23.25" height="23.06" />
		<rect x="617.63" y="803.99" class="st1" width="23.25" height="23.06" />
		<rect x="756.75" y="896.61" class="st1" width="23.25" height="23.25" />
		<rect x="780" y="757.49" class="st1" width="23.06" height="23.25" />
		<rect x="780" y="664.87" class="st1" width="23.06" height="23.25" />
		<rect x="664.13" y="803.99" class="st1" width="23.06" height="23.06" />
		<rect x="664.13" y="896.61" class="st1" width="23.06" height="23.25" />
		<rect x="640.88" y="850.3" class="st1" width="23.25" height="23.25" />
		<rect x="710.44" y="803.99" class="st1" width="23.25" height="23.06" />
		<rect x="780" y="572.06" class="st1" width="23.06" height="23.25" />
		<rect x="687.19" y="850.3" class="st1" width="23.25" height="23.25" />
		<rect x="710.44" y="896.61" class="st1" width="23.25" height="23.25" />
		<rect x="396" y="479.44" class="st1" width="23.24" height="23.25" />
		<rect x="780" y="479.44" class="st1" width="23.06" height="23.25" />
		<rect x="233.82" y="896.61" class="st1" width="23.24" height="23.25" />
		<rect x="396" y="161.48" class="st1" width="23.06" height="23.06" />
		<rect x="396" y="254.1" class="st1" width="23.06" height="23.25" />
		<rect x="396" y="346.91" class="st1" width="23.06" height="23.06" />
		<rect x="396" y="439.53" class="st1" width="23.06" height="23.25" />
		<rect x="396" y="68.67" class="st1" width="23.06" height="23.25" />
		<rect x="233.82" y="803.99" class="st1" width="23.24" height="23.06" />
		<rect x="779.81" y="254.1" class="st1" width="23.25" height="23.25" />
		<rect x="779.81" y="439.53" class="st1" width="23.25" height="23.25" />
		<rect x="779.81" y="346.91" class="st1" width="23.25" height="23.06" />
		<rect x="779.81" y="161.48" class="st1" width="23.25" height="23.06" />
		<rect x="779.81" y="68.67" class="st1" width="23.25" height="23.25" />
		<rect x="733.69" y="850.3" class="st1" width="23.06" height="23.25" />
		<rect x="617.63" y="896.61" class="st1" width="23.25" height="23.25" />
		<rect x="548.08" y="22.36" class="st1" width="23.24" height="23.25" />
		<rect x="594.39" y="161.48" class="st1" width="23.24" height="23.06" />
		<rect x="594.39" y="68.67" class="st1" width="23.24" height="23.25" />
		<rect x="594.39" y="439.53" class="st1" width="23.24" height="23.25" />
		<rect x="571.32" y="525.75" class="st1" width="23.25" height="23.25" />
		<rect x="594.39" y="346.91" class="st1" width="23.24" height="23.06" />
		<rect x="233.82" y="618.56" class="st1" width="23.24" height="23.06" />
		<rect x="617.63" y="525.75" class="st1" width="23.25" height="23.25" />
		<rect x="640.7" y="207.79" class="st1" width="23.24" height="23.25" />
		<rect x="640.7" y="22.36" class="st1" width="23.24" height="23.25" />
		<rect x="640.7" y="300.41" class="st1" width="23.24" height="23.25" />
		<rect x="640.7" y="393.22" class="st1" width="23.24" height="23.25" />
		<rect x="594.39" y="254.1" class="st1" width="23.24" height="23.25" />
		<rect x="571.32" y="896.61" class="st1" width="23.25" height="23.25" />
		<rect x="548.08" y="114.98" class="st1" width="23.24" height="23.25" />
		<rect x="525.01" y="896.61" class="st1" width="23.25" height="23.25" />
		<rect x="548.26" y="850.3" class="st1" width="23.06" height="23.25" />
		<rect x="571.32" y="803.99" class="st1" width="23.25" height="23.06" />
		<rect x="594.57" y="850.3" class="st1" width="23.06" height="23.25" />
		<rect x="525.01" y="803.99" class="st1" width="23.25" height="23.06" />
		<rect x="548.08" y="300.41" class="st1" width="23.24" height="23.25" />
		<rect x="548.08" y="207.79" class="st1" width="23.24" height="23.25" />
		<rect x="548.08" y="393.22" class="st1" width="23.24" height="23.25" />
		<rect x="525.01" y="525.75" class="st1" width="23.25" height="23.25" />
		<rect x="525.01" y="618.56" class="st1" width="23.25" height="23.06" />
		<rect x="525.01" y="711.18" class="st1" width="23.25" height="23.25" />
		<rect x="640.7" y="114.98" class="st1" width="23.24" height="23.25" />
		<rect x="396" y="572.06" class="st1" width="23.24" height="23.25" />
		<rect x="349.5" y="22.36" class="st1" width="23.25" height="23.25" />
		<rect x="372.93" y="525.75" class="st1" width="23.07" height="23.25" />
		<rect x="349.69" y="479.44" class="st1" width="23.24" height="23.25" />
		<rect x="349.5" y="114.98" class="st1" width="23.25" height="23.25" />
		<rect x="349.5" y="207.79" class="st1" width="23.25" height="23.25" />
		<rect x="442.31" y="22.36" class="st1" width="23.24" height="23.25" />
		<rect x="442.31" y="114.98" class="st1" width="23.24" height="23.25" />
		<rect x="419.24" y="525.75" class="st1" width="23.25" height="23.25" />
		<rect x="442.31" y="207.79" class="st1" width="23.24" height="23.25" />
		<rect x="349.5" y="300.41" class="st1" width="23.25" height="23.25" />
		<rect x="442.31" y="300.41" class="st1" width="23.24" height="23.25" />
		<rect x="442.31" y="393.22" class="st1" width="23.24" height="23.25" />
		<rect x="256.88" y="114.98" class="st1" width="23.25" height="23.25" />
		<rect x="640.88" y="479.44" class="st1" width="23.25" height="23.25" />
		<rect x="256.88" y="22.36" class="st1" width="23.25" height="23.25" />
		<rect x="256.88" y="207.79" class="st1" width="23.25" height="23.25" />
		<rect x="280.13" y="525.75" class="st1" width="23.25" height="23.25" />
		<rect x="233.82" y="525.75" class="st1" width="23.24" height="23.25" />
		<rect x="256.88" y="300.41" class="st1" width="23.25" height="23.25" />
		<rect x="326.44" y="525.75" class="st1" width="23.25" height="23.25" />
		<rect x="303.19" y="161.48" class="st1" width="23.25" height="23.06" />
		<rect x="303.19" y="68.67" class="st1" width="23.25" height="23.25" />
		<rect x="349.5" y="393.22" class="st1" width="23.25" height="23.25" />
		<rect x="303.19" y="439.53" class="st1" width="23.25" height="23.25" />
		<rect x="303.19" y="346.91" class="st1" width="23.25" height="23.06" />
		<rect x="303.19" y="254.1" class="st1" width="23.25" height="23.25" />
		<rect x="349.69" y="664.87" class="st1" width="23.24" height="23.25" />
		<rect x="303.38" y="664.87" class="st1" width="23.06" height="23.25" />
		<rect x="326.44" y="618.56" class="st1" width="23.25" height="23.06" />
		<rect x="303.38" y="572.06" class="st1" width="23.06" height="23.25" />
		<rect x="303.38" y="479.44" class="st1" width="23.06" height="23.25" />
		<rect x="349.69" y="757.49" class="st1" width="23.24" height="23.25" />
		<rect x="257.06" y="664.87" class="st1" width="23.07" height="23.25" />
		<rect x="326.44" y="711.18" class="st1" width="23.25" height="23.25" />
		<rect x="257.06" y="572.06" class="st1" width="23.07" height="23.25" />
		<rect x="303.38" y="757.49" class="st1" width="23.06" height="23.25" />
		<rect x="257.06" y="757.49" class="st1" width="23.07" height="23.25" />
		<rect x="257.06" y="479.44" class="st1" width="23.07" height="23.25" />
		<rect x="280.13" y="711.18" class="st1" width="23.25" height="23.25" />
		<rect x="280.13" y="618.56" class="st1" width="23.25" height="23.06" />
		<rect x="442.49" y="757.49" class="st1" width="23.06" height="23.25" />
		<rect x="442.49" y="664.87" class="st1" width="23.06" height="23.25" />
		<rect x="442.49" y="572.06" class="st1" width="23.06" height="23.25" />
		<rect x="465.55" y="618.56" class="st1" width="23.25" height="23.06" />
		<rect x="419.24" y="618.56" class="st1" width="23.25" height="23.06" />
		<rect x="465.55" y="711.18" class="st1" width="23.25" height="23.25" />
		<rect x="442.49" y="479.44" class="st1" width="23.06" height="23.25" />
		<rect x="372.93" y="711.18" class="st1" width="23.07" height="23.25" />
		<rect x="419.24" y="711.18" class="st1" width="23.25" height="23.25" />
		<rect x="372.93" y="618.56" class="st1" width="23.07" height="23.06" />
		<rect x="349.69" y="572.06" class="st1" width="23.24" height="23.25" />
		<rect x="396" y="757.49" class="st1" width="23.24" height="23.25" />
		<rect x="396" y="664.87" class="st1" width="23.24" height="23.25" />
	</g>
	<g>
		<path class="st2" d="M403.02,849.93h136.04v121.61c2.47,0.82,4.94,1.65,7.42,2.47c18.98,8.19,39.8,14.94,62.49,20.27
		c22.69,5.33,46.82,7.98,72.4,7.98c46.19,0,82.09-9.24,107.67-27.74c25.57-18.5,38.36-43.36,38.36-74.6
		c0-27.95-10.51-50.55-31.52-67.82c-21.02-17.26-46.99-32.47-77.88-45.62c-30.9-13.14-64.68-26.32-101.35-39.5
		c-36.67-13.17-70.47-29.86-101.37-50.04s-56.85-45.52-77.87-76s-31.52-70.01-31.52-118.63c0-37.06,7.2-71.04,21.63-101.94
		c14.43-30.9,34.62-57.45,60.59-79.69c25.97-22.24,57.09-39.53,93.36-51.9c36.27-12.36,76.67-18.55,121.19-18.55
		c50.28,0,99.74,4.54,148.39,13.61c48.63,9.07,87.37,21.45,116.23,37.11v251.06H831.25V415.03c-2.48,0-4.95-0.4-7.41-1.23
		c-18.13-4.94-37.69-8.85-58.71-11.72c-21.02-2.87-41.81-4.33-62.39-4.33c-39.55,0-70.65,7.81-93.3,23.43
		c-22.66,15.63-33.98,36.58-33.98,62.88c0,27.12,10.51,49.32,31.52,66.58c21.02,17.26,46.97,32.87,77.87,46.85
		c30.9,13.98,64.69,27.96,101.37,41.97c36.67,14.01,70.46,31.1,101.35,51.28s56.87,45.5,77.88,75.98s31.52,68.78,31.52,114.91
		c0,44.49-8.26,83.42-24.76,116.77c-16.5,33.37-39.59,61.37-69.29,84.02c-29.7,22.66-64.77,39.55-105.19,50.67
		c-40.42,11.11-84.14,16.68-131.16,16.68c-31.34,0-60.43-2.47-87.24-7.39c-26.82-4.95-51.57-11.11-74.24-18.52
		c-22.69-7.39-42.69-15.21-60.01-23.44c-17.33-8.23-31.36-15.22-42.08-20.99V849.93z" />
	</g>
</svg>